<?xml version="1.0"?>
<svg xmlns="http://www.w3.org/2000/svg" height="512px" viewBox="0 0 512 512" width="512px"><g><path d="m121 91c-8.277344 0-15 6.722656-15 15s6.722656 15 15 15 15-6.722656 15-15-6.722656-15-15-15zm0 0" data-original="#000000" class="active-path" data-old_color="#18efb4" fill="#18efb4"/><path d="m241 121c0-66.167969-53.832031-121-120-121s-121 54.832031-121 121v60h241zm-120 30c-24.8125 0-45-20.1875-45-45s20.1875-45 45-45 45 20.1875 45 45-20.1875 45-45 45zm0 0" data-original="#000000" class="active-path" data-old_color="#18efb4" fill="#18efb4"/><path d="m121 421c66.167969 0 120-53.832031 120-120v-90h-241v90c0 66.167969 54.832031 120 121 120zm0-180c33.089844 0 60 26.910156 60 60s-26.910156 60-60 60-60-26.910156-60-60 26.910156-60 60-60zm0 0" data-original="#000000" class="active-path" data-old_color="#18efb4" fill="#18efb4"/><path d="m121 331c16.539062 0 30-13.460938 30-30s-13.460938-30-30-30-30 13.460938-30 30 13.460938 30 30 30zm0 0" data-original="#000000" class="active-path" data-old_color="#18efb4" fill="#18efb4"/><path d="m241 482h-60v-43.714844c-18.40625 8.082032-38.644531 12.714844-60 12.714844s-41.59375-4.632812-60-12.714844v43.714844h-61v30h241zm0 0" data-original="#000000" class="active-path" data-old_color="#18efb4" fill="#18efb4"/><path d="m391 91c-8.277344 0-15 6.722656-15 15s6.722656 15 15 15 15-6.722656 15-15-6.722656-15-15-15zm0 0" data-original="#000000" class="active-path" data-old_color="#18efb4" fill="#18efb4"/><path d="m391 0c-66.167969 0-120 54.832031-120 121v60h241v-60c0-66.167969-54.832031-121-121-121zm0 151c-24.8125 0-45-20.1875-45-45s20.1875-45 45-45 45 20.1875 45 45-20.1875 45-45 45zm0 0" data-original="#000000" class="active-path" data-old_color="#18efb4" fill="#18efb4"/><path d="m271 301c0 66.167969 53.832031 120 120 120s121-53.832031 121-120v-90h-241zm120-60c33.089844 0 60 26.910156 60 60s-26.910156 60-60 60-60-26.910156-60-60 26.910156-60 60-60zm0 0" data-original="#000000" class="active-path" data-old_color="#18efb4" fill="#18efb4"/><path d="m391 331c16.539062 0 30-13.460938 30-30s-13.460938-30-30-30-30 13.460938-30 30 13.460938 30 30 30zm0 0" data-original="#000000" class="active-path" data-old_color="#18efb4" fill="#18efb4"/><path d="m451 438.285156c-18.40625 8.082032-38.644531 12.714844-60 12.714844s-41.59375-4.632812-60-12.714844v43.714844h-60v30h241v-30h-61zm0 0" data-original="#000000" class="active-path" data-old_color="#18efb4" fill="#18efb4"/></g> </svg>
